# xmcd
# 
# Track frame offsets:
#     150
#     68121
#     91643
#     151324
#     200884
#     284714
#     309812
# 
# Disc length: 4532
# 
# Revision: 0
# Processed by: cddbd v1.5.2PL0 Copyright (c) Steve Scherf et al.
# Submitted via: BonkEnc v1.0.8
# 
DISCID=5b11b207
DTITLE=Dimitri Shostakovich - Symphonies Nos. 5 and 6
DYEAR=0
DGENRE=
TTITLE0=SYMPHONIE NO 5 D-MOLL- MODERATO
TTITLE1=SYMPHONIE NO 5 D-MOLL- ALLEGRETTO
TTITLE2=SYMPHONIE NO 5 D-MOLL- LARGO
TTITLE3=SYMPHONIE NO 5 D-MOLL- ALLEGRO NON TROPPO
TTITLE4=SYMPHONIE NO 6 B-MOLL- LARGO
TTITLE5=SYMPHONIE NO 6 B-MOLL- ALLEGRO
TTITLE6=SYMPHONIE NO 6 B-MOLL- PRESTO
EXTD=
EXTT0=
EXTT1=
EXTT2=
EXTT3=
EXTT4=
EXTT5=
EXTT6=
PLAYORDER=
